# xmcd
#
# Track frame offsets:
#	182
#	18160
#	37267
#	54165
#	69137
#	80445
#	94427
#	111615
#	128115
#	143640
#	162767
#
# Disc length: 2351 seconds
#
# Revision: 0
# Processed by: cddbd v1.5.2PL0 Copyright (c) Steve Scherf et al.
# Submitted via: audiograbber 1.83.01
#
DISCID=8e092d0b
DTITLE=Billy Ray Cyrus - It Won't Be the Last
DYEAR=1993
DGENRE=Country
TTITLE0=In The Heart Of A Woman
TTITLE1=Talk Some
TTITLE2=Somebody New
TTITLE3=Only Time Will Tell
TTITLE4=Ain't Your Dog No More
TTITLE5=Words By Heart
TTITLE6=It Won't Be The Last
TTITLE7=Throwin' Stones
TTITLE8=Right Face Wrong Time
TTITLE9=Dreamin' In Color, Livin' In Black and White
TTITLE10=When I'm Gone
EXTD=
EXTT0=
EXTT1=
EXTT2=
EXTT3=
EXTT4=
EXTT5=
EXTT6=
EXTT7=
EXTT8=
EXTT9=
EXTT10=
PLAYORDER=
